<svg width="18" height="18" viewBox="0 0 18 18" fill="none" xmlns="http://www.w3.org/2000/svg">
<path d="M4.27142 10.2121C3.87426 10.5959 3.86342 11.229 4.24719 11.6261C4.63097 12.0233 5.26405 12.0341 5.6612 11.6503L4.27142 10.2121ZM9.03423 7.00032L9.75334 6.30542L9.05845 5.58631L8.33934 6.2812L9.03423 7.00032ZM12.246 11.7631C12.6298 12.1603 13.2629 12.1711 13.66 11.7874C14.0572 11.4036 14.068 10.7705 13.6842 10.3733L12.246 11.7631ZM5.6612 11.6503L9.72912 7.71943L8.33934 6.2812L4.27142 10.2121L5.6612 11.6503ZM8.31512 7.69521L12.246 11.7631L13.6842 10.3733L9.75334 6.30542L8.31512 7.69521Z" fill="current"/>
</svg>
